<svg data-name="2 wheeler" xmlns="http://www.w3.org/2000/svg" width="25" height="16.627" viewBox="0 0 25 16.627">
    <rect data-name="Rectangle 5707" width="6.021" height="1.09" rx=".545" transform="translate(1.137 1.474)" style="fill:#f5f5f5"/>
    <path data-name="Path 40872" d="M354.136 249.714a.192.192 0 0 0 .035 0 .211.211 0 0 0 .172-.185v-.69a.211.211 0 0 0-.07-.151.2.2 0 0 0-.08-.042.323.323 0 0 0-.095-.006h-.652l-4.9.006a.2.2 0 0 0-.146.064.2.2 0 0 0-.051.151v.616a.294.294 0 0 0 .007.08.2.2 0 0 0 .168.144h3.583l1.484.006h.4-.4l-1.484.006h-3.592a.239.239 0 0 1-.087-.028.233.233 0 0 1-.111-.141.285.285 0 0 1-.008-.09v-.613a.243.243 0 0 1 .061-.176.231.231 0 0 1 .172-.076l4.9.006h.652a.405.405 0 0 1 .1.008.222.222 0 0 1 .087.046.226.226 0 0 1 .078.165V249.507a.222.222 0 0 1-.085.147.211.211 0 0 1-.1.04.125.125 0 0 1-.038.02z" transform="translate(-347.192 -247.151)" style="fill:#263238"/>
    <circle data-name="Ellipse 373" cx="2.877" cy="2.877" r="2.877" transform="rotate(-2.75 236.128 -389.867)" style="fill:#263238"/>
    <path data-name="Path 40873" d="M604.076 420.84v.008a2.877 2.877 0 1 0 5.753.083v-.008z" transform="translate(-584.963 -407.273)" style="fill:#263238"/>
    <path data-name="Path 40874" d="M616.247 394.817a2.02 2.02 0 1 0 2.049-1.99 2.02 2.02 0 0 0-2.049 1.99z" transform="translate(-596.278 -381.231)" style="fill:#fafafa"/>
    <path data-name="Path 40875" d="M618.3 392.827a2.02 2.02 0 0 0-2.049 1.99l4.039.058a2.02 2.02 0 0 0-1.99-2.048z" transform="translate(-596.281 -381.231)" style="fill:#e0e0e0"/>
    <path data-name="Path 40876" d="M627.468 405.26a1.23 1.23 0 1 0 1.248-1.212 1.23 1.23 0 0 0-1.248 1.212z" transform="translate(-606.71 -391.663)" style="fill:#263238"/>
    <path data-name="Path 40877" d="M599.12 360.075a3.4 3.4 0 0 1 4.163 2.309l-6.163 1.909z" transform="translate(-578.497 -350.677)" style="fill:#00c9a6"/>
    <circle data-name="Ellipse 374" cx="2.877" cy="2.877" r="2.877" transform="rotate(-2.75 227.254 -20.161)" style="fill:#263238"/>
    <path data-name="Path 40878" d="M351.786 420.84v.008a2.877 2.877 0 1 0 5.753.083v-.009z" transform="translate(-350.422 -407.273)" style="fill:#263238"/>
    <path data-name="Path 40879" d="M364 394.817a2.02 2.02 0 1 0 2.049-1.99 2.02 2.02 0 0 0-2.049 1.99z" transform="translate(-361.774 -381.231)" style="fill:#fafafa"/>
    <path data-name="Path 40880" d="M366.046 392.828a2.02 2.02 0 0 0-2.046 1.99l4.039.058a2.02 2.02 0 0 0-1.993-2.049z" transform="translate(-361.777 -381.232)" style="fill:#e0e0e0"/>
    <path data-name="Path 40881" d="M375.178 405.26a1.23 1.23 0 1 0 1.248-1.212 1.231 1.231 0 0 0-1.248 1.212z" transform="translate(-372.169 -391.663)" style="fill:#263238"/>
    <path data-name="Path 40882" d="M385.9 402.061a75.746 75.746 0 0 1-1.514-.231.914.914 0 0 1-.683.357c-.647.031-1.28.06-1.829.084a.929.929 0 0 0-.886.966.929.929 0 0 0 .891.889l3.189.126a2.128 2.128 0 0 0 1.548-.708z" transform="translate(-377.571 -389.601)" style="fill:#455a64"/>
    <path data-name="Path 40883" d="M339.564 286.366a3.313 3.313 0 0 1 2.5-3.387v-.359h9.229v.863s-1.354 1.631-.915 2.986a5.925 5.925 0 0 0 .58 1.493h5.252a3.588 3.588 0 0 0 .663-1.99 19.05 19.05 0 0 0-.835-4.521 40.018 40.018 0 0 1-.545-2.173l1.576-.526s2.916 3.817 3.035 4.028a2.6 2.6 0 0 1 .429 1.811c-.095 1.1-2.718 4.477-3.406 4.858a5.13 5.13 0 0 1-1.93.5c-.538.083-4.514.028-5.554.012a2.04 2.04 0 0 1-1.027-.285 2.307 2.307 0 0 1-.8-1.013l-.551-1.072z" transform="translate(-339.059 -275.18)" style="fill:#00c9a6"/>
    <path data-name="Path 40884" d="m333.613 384.26-1.162 1.821a.281.281 0 0 0 .345.417 1.355 1.355 0 0 0 .39-.265 18.085 18.085 0 0 0 1.477-1.838z" transform="translate(-332.402 -373.267)" style="fill:#455a64"/>
    <path data-name="Path 40885" d="M362.93 346.973a.082.082 0 0 1 .007-.027l.023-.077a2.015 2.015 0 0 0 .061-.3 2.12 2.12 0 0 0-.18-1.1 2.3 2.3 0 0 0-.428-.644 2.811 2.811 0 0 0-.7-.539 3.563 3.563 0 0 0-.922-.343 4.852 4.852 0 0 0-1.055-.109 7.954 7.954 0 0 0-1.055.078c-.341.046-.667.1-.975.172a5.774 5.774 0 0 0-1.565.579 3.873 3.873 0 0 0-.894.683c-.093.1-.16.175-.2.229l-.05.063a.127.127 0 0 1-.018.02 2.36 2.36 0 0 1 .262-.322 3.8 3.8 0 0 1 .892-.7 5.724 5.724 0 0 1 1.571-.59c.308-.07.633-.129.977-.175a8 8 0 0 1 1.064-.079 4.841 4.841 0 0 1 1.061.11 3.606 3.606 0 0 1 .93.352 2.828 2.828 0 0 1 .713.547 2.315 2.315 0 0 1 .43.654 2.111 2.111 0 0 1 .17 1.112 1.8 1.8 0 0 1-.07.3l-.027.076a.144.144 0 0 1-.022.03z" transform="translate(-353.382 -335.652)" style="fill:#263238"/>
    <path data-name="Path 40886" d="M433.349 353.962s.015-.044.034-.125a.91.91 0 0 0 .011-.352 1.446 1.446 0 0 0-.172-.488 1.669 1.669 0 0 0-.17-.256 1.544 1.544 0 0 0-.229-.237 2 2 0 0 0-.549-.321 2.58 2.58 0 0 0-.5-.141 3.3 3.3 0 0 0-.352-.04 1.032 1.032 0 0 1-.129-.01.112.112 0 0 1 .034 0h.1a2.62 2.62 0 0 1 .352.029 2.434 2.434 0 0 1 .512.132 2.006 2.006 0 0 1 .563.324 1.609 1.609 0 0 1 .234.243 1.759 1.759 0 0 1 .171.262 1.4 1.4 0 0 1 .167.5.869.869 0 0 1-.022.356.507.507 0 0 1-.034.091.125.125 0 0 1-.021.033z" transform="translate(-424.333 -343.269)" style="fill:#f5f5f5"/>
    <g data-name="Group 5967" style="opacity:.4">
        <path data-name="Path 40887" d="M7.209 8.236a3.7 3.7 0 0 1 1.389.563 2.456 2.456 0 0 1 .931 1.157 2.029 2.029 0 0 1-.037 1.495l.652.054a2.4 2.4 0 0 0-.547-2.2 3.236 3.236 0 0 0-2.388-1.067"/>
    </g>
    <rect data-name="Rectangle 5708" width="6.912" height="6.932" rx="2" transform="translate(.692 .509)" style="fill:#0254a3"/>
    <path data-name="Path 40888" d="M348.762 279.058c0 .011-1.554.018-3.47.018s-3.471-.008-3.471-.018 1.553-.018 3.471-.018 3.47.008 3.47.018z" transform="translate(-341.157 -275.449)" style="fill:#263238"/>
    <path data-name="Path 40889" d="M383.775 338.168c0 .01-2.075.018-4.633.018s-4.633-.008-4.633-.018 2.074-.018 4.633-.018 4.633.008 4.633.018z" transform="translate(-371.548 -330.401)" style="fill:#263238"/>
    <path data-name="Path 40890" d="M449.506 321.415a.8.8 0 0 0 .167-.414c.014-.231-.091-.521-.341-.521h-3.187a.935.935 0 0 0-.935.935z" transform="translate(-437.274 -313.974)" style="fill:#455a64"/>
    <path data-name="Path 40891" d="m557.8 244.888-.554-1.156a.7.7 0 0 1 .281-.9l1.657-.988a.556.556 0 0 1 .286-.079h.358l.141 2.336-.552.213.352.568z" transform="translate(-541.368 -240.792)" style="fill:#00c9a6"/>
    <path data-name="Path 40892" d="M594.91 243s.567.13.638 1a1.105 1.105 0 0 1-.5 1.147z" transform="translate(-576.442 -241.945)" style="fill:#ebebeb"/>
    <path data-name="Path 40893" d="M549.989 262.167s-1.146.543-1.286.633a.267.267 0 0 0-.1.361c.129.324.666.019.666.019l1.067-.533s.41-.193.258-.436c-.174-.272-.605-.044-.605-.044z" transform="translate(-533.361 -259.68)" style="fill:#263238"/>
    <path data-name="Path 40895" d="M557.7 228.789c0 .436-.2.789-.447.789s-.448-.352-.448-.789.2-.789.448-.789.447.352.447.789z" transform="translate(-541.023 -228)" style="fill:#263238"/>
    <path data-name="Path 40896" d="m564.21 244.852.246.853a.221.221 0 0 0 .115-.252c-.062-.292-.1-.5-.165-.756-.008-.025-.2.155-.2.155" transform="translate(-547.902 -243.521)" style="fill:#263238"/>
    <g data-name="Group 5968" style="opacity:.4">
        <path data-name="Path 40897" d="M11.439 11.649c-.024-.07-.049-.141-.07-.216s-.048-.141-.066-.211a2.261 2.261 0 0 1-.062-.322c-.415 1.688.219 2.88 1.306 2.963a18.653 18.653 0 0 0 4.312.006 3.333 3.333 0 0 0 2.078-1.763 5.616 5.616 0 0 0 .563-4.274 29.327 29.327 0 0 0-1.91-4.124l-1.156.388s.211.985.547 2.17a19.053 19.053 0 0 1 .835 4.521 3.588 3.588 0 0 1-.663 1.99h-5.252a4.541 4.541 0 0 1-.459-1.126"/>
    </g>
    <path data-name="Path 40898" d="m336.566 375.481.037-.4 9.588 1.1a.947.947 0 0 1 .822 1.106l-.043.243-9.92-1.442a.563.563 0 0 1-.484-.607z" transform="translate(-336.271 -364.733)" style="fill:#ff725e"/>
    <g data-name="Group 5969" style="opacity:.6">
        <path data-name="Path 40899" d="m336.566 375.481.037-.4 9.588 1.1a.947.947 0 0 1 .822 1.106l-.043.243-9.92-1.442a.563.563 0 0 1-.484-.607z" transform="translate(-336.271 -364.733)" style="fill:#007863"/>
    </g>
    <g data-name="Group 5970" style="opacity:.36">
        <path data-name="Path 40900" d="M18.937 13.431a12.626 12.626 0 0 0 2.546-4.147 4.1 4.1 0 0 1 .654.049s-1.248 3.392-3.2 4.098z"/>
    </g>
    <path data-name="Path 40901" d="M602.654 348.34a.339.339 0 0 1 .011.058c.006.039.017.1.024.17a2.583 2.583 0 0 1-.016.633 3.2 3.2 0 0 1-.281.892 10.1 10.1 0 0 1-.559 1 13.332 13.332 0 0 1-1.235 1.67 56.5 56.5 0 0 1-.412.476l-.114.127a.5.5 0 0 1-.042.043.31.31 0 0 1 .036-.047l.109-.132.4-.483a14.519 14.519 0 0 0 1.224-1.673 10.721 10.721 0 0 0 .563-.994 3.266 3.266 0 0 0 .281-.882 2.816 2.816 0 0 0 .027-.625c-.005-.074-.014-.131-.017-.17a.309.309 0 0 1 .001-.063z" transform="translate(-581.202 -339.874)" style="fill:#263238"/>
    <path data-name="Path 40902" d="M576.871 410.247a2.82 2.82 0 0 1-.338-.305 2.9 2.9 0 0 1-.312-.331 5.641 5.641 0 0 1 .65.636z" transform="translate(-559.067 -396.833)" style="fill:#263238"/>
    <path data-name="Path 40903" d="M496.43 410.306a.977.977 0 0 1 .155-.3.99.99 0 0 1 .222-.255c.008.008-.089.123-.191.276s-.176.283-.186.279z" transform="translate(-484.89 -396.964)" style="fill:#263238"/>
    <path data-name="Path 40904" d="M425.515 408.421a1.418 1.418 0 0 0 .288-.366 1.259 1.259 0 0 0 .141-.482 1.119 1.119 0 0 0-.505-1.055 1.257 1.257 0 0 0-.463-.193 1.414 1.414 0 0 0-.465-.006.135.135 0 0 1 .031-.009.765.765 0 0 1 .093-.018 1.1 1.1 0 0 1 .346.008 1.259 1.259 0 0 1 .477.191 1.137 1.137 0 0 1 .52 1.09 1.259 1.259 0 0 1-.152.492 1.09 1.09 0 0 1-.211.274.721.721 0 0 1-.07.061.132.132 0 0 1-.03.013z" transform="translate(-418.03 -393.739)" style="fill:#263238"/>
    <path data-name="Path 40905" d="M388.424 417.288a1.51 1.51 0 0 1-.034-.338 1.592 1.592 0 0 1 0-.341 3.16 3.16 0 0 1 .032.678z" transform="translate(-384.442 -403.341)" style="fill:#263238"/>
    <path data-name="Path 40906" d="M391.5 417.28a3.259 3.259 0 0 1-.087-.68 3.254 3.254 0 0 1 .087.68z" transform="translate(-387.259 -403.332)" style="fill:#263238"/>
    <path data-name="Path 40907" d="M380.056 333.528c0 .01-1.166.018-2.6.018s-2.6-.008-2.6-.018 1.166-.018 2.6-.018 2.6.008 2.6.018z" transform="translate(-371.864 -326.087)" style="fill:#263238"/>
    <path data-name="Path 40908" d="M394.948 254.96c-.011 0-.018-1.337-.018-2.982s0-2.979.018-2.979.018 1.337.018 2.982-.008 2.979-.018 2.979z" transform="translate(-390.531 -247.523)" style="fill:#263238"/>
    <path data-name="Path 40909" d="M384.984 254.909c-.01 0 .04-1.337.112-2.98s.141-2.979.148-2.979-.039 1.337-.111 2.98-.133 2.979-.149 2.979z" transform="translate(-381.283 -247.476)" style="fill:#263238"/>
    <path data-name="Path 40910" d="M352.077 397.377a.23.23 0 0 1-.031-.032c-.018-.021-.049-.051-.082-.094a2.7 2.7 0 0 1-.26-.381 2.915 2.915 0 0 1 .012-2.918 2.648 2.648 0 0 1 .262-.379c.034-.043.064-.07.083-.094s.03-.032.031-.03a.176.176 0 0 1-.025.035c-.017.023-.046.054-.077.1a3.011 3.011 0 0 0-.015 3.66c.031.044.059.076.076.1s.028.032.026.033z" transform="translate(-349.989 -381.808)" style="fill:#455a64"/>
    <path data-name="Path 2506" d="M416.589 163a.589.589 0 0 1 .589.589.589.589 0 0 1-.589.589.589.589 0 0 1-.589-.589.589.589 0 0 1 .589-.589z" transform="translate(-413.941 -158.306)" style="fill:#00de9d"/>
    <path data-name="Path 2507" d="M416.589 108a.589.589 0 0 1 .589.589.589.589 0 0 1-.589.589.589.589 0 0 1-.589-.589.589.589 0 0 1 .589-.589z" transform="translate(-413.941 -104.849)" style="fill:#00de9d"/>
    <path data-name="Path 2508" d="M416.589 53a.589.589 0 0 1 .589.589.589.589 0 0 1-.589.589.589.589 0 0 1-.589-.589.589.589 0 0 1 .589-.589z" transform="translate(-413.941 -51.393)" style="fill:#00de9d"/>
    <path data-name="Path 2509" d="M471.589 163a.589.589 0 0 1 .589.589.589.589 0 0 1-.589.589.589.589 0 0 1-.589-.589.589.589 0 0 1 .589-.589z" transform="translate(-467.397 -158.306)" style="fill:#00de9d"/>
    <path data-name="Path 2510" d="M471.589 108a.589.589 0 0 1 .589.589.589.589 0 0 1-.589.589.589.589 0 0 1-.589-.589.589.589 0 0 1 .589-.589z" transform="translate(-467.397 -104.849)" style="fill:#00de9d"/>
    <path data-name="Path 2511" d="M471.589 53a.589.589 0 0 1 .589.589.589.589 0 0 1-.589.589.589.589 0 0 1-.589-.589.589.589 0 0 1 .589-.589z" transform="translate(-467.397 -51.393)" style="fill:#00de9d"/>
    <path data-name="Path 2512" d="M526.589 108a.589.589 0 0 1 .589.589.589.589 0 0 1-.589.589.589.589 0 0 1-.589-.589.589.589 0 0 1 .589-.589z" transform="translate(-520.854 -104.849)" style="fill:#00de9d"/>
</svg>
