<svg xmlns="http://www.w3.org/2000/svg" width="25" height="16.572" viewBox="0 0 25 16.572">
    <g data-name="Group 9862">
        <path data-name="Rectangle 6049" transform="translate(.886 1.093)" style="fill:#0254a3" d="M0 0h10.668v8.158H0z"/>
        <path data-name="Path 41279" d="M-1606.387-1144.867h-3.623a.416.416 0 0 1-.062-.279 2.211 2.211 0 0 0-2.215-2.185 2.212 2.212 0 0 0-2.255 2.139c0 .112.022.23-.064.327-.553 0-1.107.008-1.66 0a1.062 1.062 0 0 1-1.075-1.066c-.007-1.6 0-3.206 0-4.809.387-.035.777-.072 1.162-.071 3.283.009 6.566 0 9.849 0a8.965 8.965 0 0 1 1 .019.21.21 0 0 1 .083.049.475.475 0 0 1 .05.283v2.634c0 .333-.05.381-.378.39h-.415c-.3 0-.32.018-.321.315v1.9a.449.449 0 0 1-.076.354z" transform="translate(1617.343 1159.805)" style="fill:#00c9a6"/>
        <path data-name="Path 41280" d="M-1616.534-1283.493a1.843 1.843 0 0 1-.782-1.324c-.016-.151.008-.207.186-.2 2.256.082 4.507.214 6.753.446 2.309.238 4.606.553 6.885.992a62.692 62.692 0 0 1 7.54 1.925 1.965 1.965 0 0 1-.884.379 2.184 2.184 0 0 1-.85.159 2.722 2.722 0 0 1-.413 0 3.234 3.234 0 0 1-1.019.022c-.452-.052-.908-.028-1.363-.059a67.27 67.27 0 0 1-3.4-.329c-.581-.069-1.163-.133-1.741-.223a6.52 6.52 0 0 0-.558-.062c-2.135-.309-4.272-.6-6.406-.918-1.111-.165-2.227-.3-3.333-.493-.215-.076-.463-.103-.615-.315z" transform="translate(1617.322 1285.018)" style="fill:#0254a3"/>
        <path data-name="Path 41281" d="M-1453.878-1143.667v-2.395c0-.185.04-.269.243-.252s.424-.01.635.008.256-.068.255-.265c-.009-.985 0-1.971 0-2.956.166.033.119.175.12.271.008.461.012.922 0 1.382.013.367 0 .733.006 1.1s.009.385.381.385h5.891c.245 0 .489-.008.733.006a7.909 7.909 0 0 1 1.234.03c.127.08.116.185.053.3 0 .318-.016.636-.007.953a1.363 1.363 0 0 1-1.449 1.448c-2.013-.024-4.027-.009-6.04-.007-.586 0-1.173.016-1.759.022a.6.6 0 0 1-.296-.03z" transform="translate(1464.834 1158.606)" style="fill:#84e681"/>
        <path data-name="Path 41282" d="m-1616.5-1262.262.581.255a.562.562 0 0 1 .077.4v3.543c0 .377.006.382.381.382h8.869c.37 0 .375-.005.375-.388v-2.15a.491.491 0 0 1 .077-.372 1.984 1.984 0 0 1 .541.062.55.55 0 0 1 .072.4v4.9c0 .109-.032.227.064.335.118-.094.048-.256.137-.351.143-.022.12.1.129.169a.355.355 0 0 1-.073.336c-.374.006-.748.016-1.122.017h-10.897a.811.811 0 0 1 .5-.041c.221.012.288-.054.288-.283-.009-2.3-.005-4.6-.005-6.9.006-.103.006-.208.006-.314z" transform="translate(1617.285 1263.787)" style="fill:#0254a3"/>
        <path data-name="Path 41283" d="M-1330.283-1220.618h-1.219a.468.468 0 0 1-.066-.4c.041-.388.065-.776.092-1.165.061-.537.078-1.078.113-1.617a1.34 1.34 0 0 0 .032-.456 39.134 39.134 0 0 1 0-1.282.821.821 0 0 0-.034-.262 52.687 52.687 0 0 0-.116-1.985c-.026-.322-.057-.644-.072-.968 0-.1-.04-.21.047-.3l1.264-.119a10.028 10.028 0 0 1 .8 2.24 9.141 9.141 0 0 1 .011 3.984 1.4 1.4 0 0 0-.017.169.2.2 0 0 1 .008.165 8.313 8.313 0 0 1-.706 1.857.22.22 0 0 1-.137.139z" transform="translate(1350.728 1232.906)" style="fill:#0254a3"/>
        <path data-name="Path 41284" d="M-1567.182-1091.647a2.142 2.142 0 0 1-.661 1.185 1.856 1.856 0 0 1-3.005-.947l-.063-.235a.624.624 0 0 1-.051-.427 1.944 1.944 0 0 1 1.656-1.7 1.907 1.907 0 0 1 2.123 1.483.84.84 0 0 1 .001.641z" transform="translate(1574.082 1106.588)" style="fill:#233947"/>
        <path data-name="Path 41285" d="M-1312.2-1133.716a9.63 9.63 0 0 0 .834-2.152 2.3 2.3 0 0 1 1.912.135 5.461 5.461 0 0 1 1.808 1.5 4.74 4.74 0 0 0-3.132.05 1.133 1.133 0 0 1-.594.274 5.192 5.192 0 0 0-.774.456c-.036-.083.03-.189-.054-.263z" transform="translate(1332.649 1146.004)" style="fill:#1783ad"/>
        <path data-name="Path 41286" d="M-1301.071-1096.824a1.819 1.819 0 0 1 2.072.643 1.733 1.733 0 0 1 .171 1.97 1.743 1.743 0 0 1-1.856.988 1.721 1.721 0 0 1-1.52-1.2 1.819 1.819 0 0 1 .537-2.059.378.378 0 0 1 .279.544c-.054.09-.125.17-.178.262a1.271 1.271 0 0 0 .571 1.776 1.264 1.264 0 0 0 1.7-.69 1.263 1.263 0 0 0-1.336-1.726.4.4 0 0 1-.44-.508z" transform="translate(1323.435 1109.518)" style="fill:#233947"/>
        <path data-name="Path 41287" d="M-1298.748-1107.711c0 .175.127.292.2.433.047.093.132.019.2.01a1.343 1.343 0 0 1 1.508 1.047 1.327 1.327 0 0 1-.958 1.561 1.341 1.341 0 0 1-1.466-.569 1.334 1.334 0 0 1 .083-1.548.379.379 0 0 0-.16-.6c.049-.086 0-.158-.041-.225a3.152 3.152 0 0 0-.453-.711 2.649 2.649 0 0 1 .594-.275 2.6 2.6 0 0 0 .493.877z" transform="translate(1321.112 1120.405)" style="fill:#cbcdd3"/>
        <path data-name="Path 41288" d="M-1572.372-1097.238a2.158 2.158 0 0 0-.485-1.465 1.906 1.906 0 0 0-2.5-.244 1.985 1.985 0 0 0-.749 1.711h-.433a2.29 2.29 0 0 1 1.6-2.419 2.3 2.3 0 0 1 2.994 2.077c.006.113 0 .227 0 .341z" transform="translate(1579.273 1112.18)" style="fill:#4f6778"/>
        <path data-name="Path 41289" d="m-1439.509-1192.964-.033-.527a.356.356 0 0 1-.078-.319q.047-.914.053-1.829c0-.336.129-.426.463-.405a.339.339 0 0 1 .338.32 8.275 8.275 0 0 1 .154 2.209c-.036.47-.014.944-.087 1.411-.027.176.042.212.206.17a5.811 5.811 0 0 1 1.619-.2 3.853 3.853 0 0 1 1.676.383c.236.121.265.256.135.5a.662.662 0 0 1-.333.049h-3.654a.552.552 0 0 1-.353-.065c0-.479-.005-.957-.013-1.436 0-.076.036-.162-.035-.229z" transform="translate(1451.532 1202.01)" style="fill:#233947"/>
        <path data-name="Path 41292" d="m-1432.017-1124.851 2.834.013-.089 1.546q-3.446 0-6.893.008c-.161 0-.211-.052-.208-.21.009-.448 0-.9 0-1.344h4.059c.102-.003.199-.01.297-.013z" transform="translate(1448.498 1135.583)" style="fill:#00c9a6"/>
        <path data-name="Path 41295" d="M-1367.625-1178.815a1.043 1.043 0 0 1-.006-.195.749.749 0 0 0-.3-.727 3.421 3.421 0 0 1-.356-.4c-.064-.075-.109-.08-.2-.015a2.128 2.128 0 0 1-1.519.286 2.072 2.072 0 0 1-.24-.036c-.173-.036-.288-.14-.264-.321a.275.275 0 0 1 .352-.251 3.285 3.285 0 0 0 .826.035.753.753 0 0 0 .647-.324c.177-.259.335-.265.555-.043a3.268 3.268 0 0 1 .218.261c.07.087.137.175.206.262l.079-.049v-.5a2.719 2.719 0 0 1 .035.815 6.432 6.432 0 0 1-.033 1.202z" transform="translate(1387.048 1187.935)" style="fill:#cbcdd4"/>
        <path data-name="Path 41296" d="M-1312.722-1164.913a2.063 2.063 0 0 1-.176.8c-.045.083-.092.154-.2.148a.2.2 0 0 1-.176-.148 2.062 2.062 0 0 1 0-1.628.2.2 0 0 1 .2-.149c.1 0 .137.073.177.147a2.047 2.047 0 0 1 .175.83z" transform="translate(1333.804 1173.869)" style="fill:#e6ecef"/>
        <path data-name="Path 41297" d="M-1559.821-1080.665a.89.89 0 0 1-.036-.53c.026-.048.077-.055.122-.071.256-.09.284-.139.246-.414-.008-.055-.029-.112.017-.162a1.279 1.279 0 0 1 .384-.213.572.572 0 0 0 .789 0 1.406 1.406 0 0 1 .38.218.065.065 0 0 1 .028.061c-.026.4-.026.4.324.567a.694.694 0 0 1 0 .542c-.152.086-.373.1-.363.353 0 .079.055.153.027.236a1 1 0 0 1-.434.278.762.762 0 0 1-.175-.129.258.258 0 0 0-.372 0c-.07.061-.136.147-.251.1l-.336-.2a.088.088 0 0 1-.027-.086c.027-.385.027-.385-.323-.55z" transform="translate(1563.729 1095.656)" style="fill:#fff"/>
        <path data-name="Path 41298" d="M-1547.264-1082.911c-.051.014-.073.057-.1.094a.335.335 0 0 1-.584.008c-.031-.035-.067-.067-.1-.1a1.278 1.278 0 0 1 .784-.002z" transform="translate(1552.695 1096.51)" style="fill:#516879"/>
        <path data-name="Path 41299" d="M-1559.152-1078.842a.244.244 0 0 0 0 .073c.143.4.041.547-.388.573a1.242 1.242 0 0 1 .388-.646z" transform="translate(1563.411 1092.657)" style="fill:#516879"/>
        <path data-name="Path 41300" d="M-1548.745-1052.388a.169.169 0 0 0 .125-.052c.276-.288.453-.264.672.086a1.454 1.454 0 0 1-.797-.034z" transform="translate(1553.341 1068.209)" style="fill:#516879"/>
        <path data-name="Path 41301" d="M-1531.132-1078.18c-.4.013-.5-.167-.352-.628a1.082 1.082 0 0 1 .352.628z" transform="translate(1537.297 1092.625)" style="fill:#506778"/>
        <path data-name="Path 41302" d="M-1559.009-1061.3c.356-.015.5.182.378.513a.925.925 0 0 0-.026.114 1 1 0 0 1-.352-.627z" transform="translate(1562.917 1076.29)" style="fill:#516879"/>
        <path data-name="Path 41303" d="M-1531.766-1060.871a.363.363 0 0 1-.054-.423.34.34 0 0 1 .389-.166.891.891 0 0 1-.335.589z" transform="translate(1537.594 1076.447)" style="fill:#516779"/>
        <path data-name="Path 41304" d="M-1288.445-1083.249a.591.591 0 0 1 .484.252.824.824 0 0 0 .236.417c.059.188.131.378-.046.546-.059.135-.14.259-.194.4-.128.154-.264.292-.492.246a1.82 1.82 0 0 1-.433 0 .541.541 0 0 1-.493-.245c-.055-.138-.136-.263-.2-.4a.494.494 0 0 1-.045-.548c.089-.069.13-.19.249-.227.028-.231.2-.2.358-.2.12 0 .257.032.276-.151a.471.471 0 0 1 .3-.09z" transform="translate(1311.639 1096.769)" style="fill:#fff"/>
        <path data-name="Path 41305" d="M-1276.858-1084.093a.4.4 0 0 1-.3.092c-.031-.043-.124-.042-.11-.107s.094-.04.142-.039c.093.003.195-.035.268.054z" transform="translate(1300.052 1097.614)" style="fill:#5f7384"/>
        <path data-name="Path 41306" d="M-1288.3-1065.107a.343.343 0 0 1 .2.4c-.119-.108-.254-.207-.2-.4z" transform="translate(1310.356 1079.843)" style="fill:#5b7080"/>
        <path data-name="Path 41307" d="M-1264.144-1064.7a.352.352 0 0 1 .194-.4c.06.194-.073.292-.194.4z" transform="translate(1287.818 1079.836)" style="fill:#5a6f80"/>
        <path data-name="Path 41308" d="M-1277.834-1056.337a.419.419 0 0 1 .433 0 .29.29 0 0 1-.433 0z" transform="translate(1300.582 1071.717)" style="fill:#5a6f80"/>
        <path data-name="Path 41309" d="M-1288.531-1078.968a.351.351 0 0 1-.249.227.8.8 0 0 1 .209-.392c.057.055.026.115.04.165z" transform="translate(1310.795 1092.929)" style="fill:#5d7282"/>
        <path data-name="Path 41310" d="M-1263.878-1079.055a.326.326 0 0 1-.236-.417.725.725 0 0 1 .236.417z" transform="translate(1287.792 1093.245)" style="fill:#5b7080"/>
        <path data-name="Path 2506" d="M416.462 163a.462.462 0 0 1 .462.462.462.462 0 0 1-.462.462.462.462 0 0 1-.462-.462.462.462 0 0 1 .462-.462z" transform="translate(-413.263 -156.853)" style="fill:#00de9d"/>
        <path data-name="Path 2507" d="M416.462 108a.462.462 0 0 1 .462.462.462.462 0 0 1-.462.462.462.462 0 0 1-.462-.462.462.462 0 0 1 .462-.462z" transform="translate(-413.263 -103.064)" style="fill:#00de9d"/>
        <path data-name="Path 2508" d="M416.462 53a.462.462 0 0 1 .462.462.462.462 0 0 1-.462.462.462.462 0 0 1-.462-.462.462.462 0 0 1 .462-.462z" transform="translate(-413.263 -49.275)" style="fill:#00de9d"/>
        <path data-name="Path 2509" d="M471.462 163a.462.462 0 0 1 .462.462.462.462 0 0 1-.462.462.462.462 0 0 1-.462-.462.462.462 0 0 1 .462-.462z" transform="translate(-467.052 -156.853)" style="fill:#00de9d"/>
        <path data-name="Path 2510" d="M471.462 108a.462.462 0 0 1 .462.462.462.462 0 0 1-.462.462.462.462 0 0 1-.462-.462.462.462 0 0 1 .462-.462z" transform="translate(-467.052 -103.064)" style="fill:#00de9d"/>
        <path data-name="Path 2511" d="M471.462 53a.462.462 0 0 1 .462.462.462.462 0 0 1-.462.462.462.462 0 0 1-.462-.462.462.462 0 0 1 .462-.462z" transform="translate(-467.052 -49.275)" style="fill:#00de9d"/>
        <path data-name="Path 2512" d="M526.462 108a.462.462 0 0 1 .462.462.462.462 0 0 1-.462.462.462.462 0 0 1-.462-.462.462.462 0 0 1 .462-.462z" transform="translate(-520.841 -103.064)" style="fill:#00de9d"/>
    </g>
</svg>
