<svg xmlns="http://www.w3.org/2000/svg" width="24" height="24.034" viewBox="0 0 24 24.034">
    <g data-name="package (1)">
        <path data-name="Line 9" transform="translate(6.931 3.453)" style="fill:none;stroke:#384853;stroke-linecap:round;stroke-linejoin:round;stroke-width:2px" d="M9.862 5.687 0 0"/>
        <path data-name="Path 40493" d="M22.723 17.34V8.574a2.191 2.191 0 0 0-1.1-1.9L13.957 2.3a2.191 2.191 0 0 0-2.191 0L4.1 6.679A2.191 2.191 0 0 0 3 8.574v8.766a2.191 2.191 0 0 0 1.1 1.9l7.67 4.383a2.191 2.191 0 0 0 2.191 0l7.67-4.383a2.191 2.191 0 0 0 1.092-1.9z" style="fill:none;stroke:#384853;stroke-linecap:round;stroke-linejoin:round;stroke-width:2px" transform="translate(-1 -.968)"/>
        <path data-name="Path 40494" d="m3.27 6.96 9.566 5.533L22.4 6.96" transform="translate(-.974 -.493)" style="fill:none;stroke:#384853;stroke-linecap:round;stroke-linejoin:round;stroke-width:2px"/>
        <path data-name="Line 10" transform="translate(11.862 11.989)" style="fill:none;stroke:#384853;stroke-linecap:round;stroke-linejoin:round;stroke-width:2px" d="M0 11.045V0"/>
    </g>
</svg>
